<?xml version="1.0" encoding="UTF-8" standalone="no"?>
<!-- Created with Inkscape (http://www.inkscape.org/) -->

<svg
   width="210mm"
   height="297mm"
   viewBox="0 0 210 297"
   version="1.1"
   id="svg5"
   inkscape:version="1.1.2 (b8e25be8, 2022-02-05)"
   sodipodi:docname="tilde.svg"
   xmlns:inkscape="http://www.inkscape.org/namespaces/inkscape"
   xmlns:sodipodi="http://sodipodi.sourceforge.net/DTD/sodipodi-0.dtd"
   xmlns="http://www.w3.org/2000/svg"
   xmlns:svg="http://www.w3.org/2000/svg">
  <sodipodi:namedview
     id="namedview7"
     pagecolor="rgb(99, 164, 233)"
     bordercolor="rgb(99, 164, 233)"
     borderopacity="1.0"
     inkscape:pageshadow="2"
     inkscape:pageopacity="0.0"
     inkscape:pagecheckerboard="0"
     inkscape:document-units="mm"
     showgrid="false"
     inkscape:zoom="0.51758558"
     inkscape:cx="396.06977"
     inkscape:cy="561.25984"
     inkscape:window-width="1500"
     inkscape:window-height="737"
     inkscape:window-x="202"
     inkscape:window-y="25"
     inkscape:window-maximized="0"
     inkscape:current-layer="layer1" />
  <defs
     id="defs2" />
  <g
     inkscape:label="Layer 1"
     inkscape:groupmode="layer"
     id="layer1">
    <path
       style="fill:rgb(99, 164, 233);stroke-width:0.42489"
       d="m 53.409172,185.62114 c -5.762526,-0.38714 -11.498545,-1.40515 -16.977257,-3.25376 -3.998335,-1.34414 -7.866746,-3.06618 -11.573437,-5.07708 -0.670203,-0.38151 -1.365254,-0.73319 -1.975793,-1.20742 -0.217435,-0.3184 -0.211142,-0.73116 -0.270784,-1.09997 -0.18029,-1.95317 -0.181796,-3.91749 -0.222773,-5.87703 -0.09773,-8.4542 -0.04888,-16.90919 -0.049,-25.36376 0.01204,-5.44107 0.0042,-10.8823 0.03543,-16.3233 0.0055,-0.39368 0.01108,-0.78734 0.01662,-1.18103 2.113735,1.06658 4.217517,2.15309 6.341102,3.19994 4.503247,2.19386 9.251587,3.91402 14.16545,4.91521 6.042362,1.24936 12.23768,1.52085 18.392183,1.50315 5.347779,-0.026 10.68887,-0.55143 15.947096,-1.52135 7.462718,-1.37036 14.786377,-3.38849 22.081263,-5.45305 9.846698,-2.82782 19.671388,-5.74131 29.590638,-8.30799 5.41074,-1.39494 10.87495,-2.62159 16.41829,-3.35678 9.29357,-1.29387 18.81613,-1.42258 28.05815,0.34115 6.43187,1.21667 12.68994,3.37909 18.46288,6.47096 1.22857,0.64251 2.45714,1.28503 3.6857,1.92754 0.0731,16.63317 0.1463,33.26634 0.21936,49.89951 -2.16262,-1.07962 -4.31571,-2.17854 -6.48727,-3.24008 -3.75401,-1.81706 -7.66933,-3.30693 -11.702,-4.37663 -2.08962,-0.55014 -4.1951,-1.05182 -6.32594,-1.41541 -2.85397,-0.4663 -5.75638,-0.45194 -8.63945,-0.48913 -3.84157,-0.0112 -7.68451,-0.0413 -11.52484,0.0761 -2.41562,0.0713 -4.82692,0.29559 -7.20979,0.70111 -6.15751,1.02995 -12.23868,2.47123 -18.27371,4.05937 -5.71208,1.51032 -11.3646,3.23391 -17.04781,4.84726 -7.0688,2.01958 -14.128195,4.07922 -21.25134,5.90116 -4.168905,1.06668 -8.386861,1.9476 -12.643254,2.58427 -3.982249,0.55156 -7.984071,0.95475 -11.990106,1.28747 -1.384118,0.0981 -2.769683,0.23149 -4.158556,0.21561 -1.694777,-0.15337 -3.393598,-0.2647 -5.091052,-0.38604 z"
       id="path854"
       inkscape:export-filename="/Users/ksergi/Desktop/tilde.png"
       inkscape:export-xdpi="96"
       inkscape:export-ydpi="96" />
  </g>
</svg>
